# xmcd
# 
# Track frame offsets:
#     150
#     15973
#     28809
#     51063
#     65638
#     78708
#     94067
#     113722
#     129529
#     138866
#     160261
#     178622
#     199133
#     220358
#     235336
# 
# Disc length: 3632
# 
# Revision: 0
# Processed by: cddbd v1.5.2PL0 Copyright (c) Steve Scherf et al.
# Submitted via: fre:ac v1.0.31
# 
DISCID=cf0e2e0f
DTITLE=Blues - Hightone Records Anthology Disc 1
DYEAR=0
DGENRE=Blues
TTITLE0=01  Phone Booth - Robert Cray Band
TTITLE1=02 HAVE LOVE, WILL TRAVEL – BIG SANDY
TTITLE2=03 ABILENE – DAVE ALVIN
TTITLE3=04 THREE TIMES A FOOL – OTIS RUSH
TTITLE4=05 THE EYES OF ROBERTO DURAN – CHRIS GAFFNEY
TTITLE5=06 CAN’T LET GO – RANDY WEEKS
TTITLE6=07 OUT IN THE RAIN – JULIE MILLER
TTITLE7=08 CAN’T SHAKE THESE BLUES – CHRIS SMITHER
TTITLE8=09 MARIE MARIE – THE BLASTERS
TTITLE9=10 THE SOUL OF A WOMAN – P.F. SLOAN
TTITLE10=11 747 – JOE LOUIS WALKER
TTITLE11=12 SETTLE FOR LOVE – JOE ELY
TTITLE12=13 THE WILD OX MOAN – GEOFF MULDAUR
TTITLE13=14 GHOST RIDERS IN THE SKY – DICK DALE
TTITLE14=15 HOT ROD LINCOLN (live) – BILL KIRCHEN
EXTD=
EXTT0=
EXTT1=
EXTT2=
EXTT3=
EXTT4=
EXTT5=
EXTT6=
EXTT7=
EXTT8=
EXTT9=
EXTT10=
EXTT11=
EXTT12=
EXTT13=
EXTT14=
PLAYORDER=
